<?xml version="1.0" encoding="UTF-8" standalone="no"?>
<!-- Uploaded to: SVG Repo, www.svgrepo.com, Generator: SVG Repo Mixer Tools -->

<svg
   fill="#000000"
   height="800px"
   width="800px"
   version="1.1"
   id="Layer_1"
   viewBox="0 0 511.992 511.992"
   xml:space="preserve"
   sodipodi:docname="ship-boat-svgrepo-com.svg"
   inkscape:version="1.4.3 (0d15f75042, 2025-12-25)"
   xmlns:inkscape="http://www.inkscape.org/namespaces/inkscape"
   xmlns:sodipodi="http://sodipodi.sourceforge.net/DTD/sodipodi-0.dtd"
   xmlns="http://www.w3.org/2000/svg"
   xmlns:svg="http://www.w3.org/2000/svg"><defs
   id="defs6" /><sodipodi:namedview
   id="namedview6"
   pagecolor="#ffffff"
   bordercolor="#cccccc"
   borderopacity="1"
   inkscape:showpageshadow="0"
   inkscape:pageopacity="1"
   inkscape:pagecheckerboard="0"
   inkscape:deskcolor="#d1d1d1"
   inkscape:zoom="0.76986251"
   inkscape:cx="634.52889"
   inkscape:cy="572.18009"
   inkscape:window-width="1820"
   inkscape:window-height="1028"
   inkscape:window-x="0"
   inkscape:window-y="0"
   inkscape:window-maximized="1"
   inkscape:current-layer="layer1" />
<g
   id="g2">
	<g
   id="g1">
		<path
   d="M503.467,255.996H8.534c-3.208,0-6.144,1.801-7.603,4.659c-1.459,2.859-1.186,6.298,0.708,8.892l68.267,93.867    c1.604,2.21,4.156,3.516,6.886,3.516c40.823,0,356.617,0,384.068,0c1.289,0,2.543-0.299,3.695-0.87    c41.779-20.855,47.437-62.985,47.437-101.461C512,259.861,508.194,255.996,503.467,255.996z M110.934,285.863    c0,2.355-1.911,4.267-4.267,4.267h-8.533c-2.355,0-4.267-1.911-4.267-4.267v-8.533c0-2.355,1.911-4.267,4.267-4.267h8.533    c2.355,0,4.267,1.911,4.267,4.267V285.863z M145.067,285.863c0,2.355-1.911,4.267-4.267,4.267h-8.533    c-2.355,0-4.267-1.911-4.267-4.267v-8.533c0-2.355,1.911-4.267,4.267-4.267h8.533c2.355,0,4.267,1.911,4.267,4.267V285.863z     M179.2,285.863c0,2.355-1.911,4.267-4.267,4.267H166.4c-2.355,0-4.267-1.911-4.267-4.267v-8.533c0-2.355,1.911-4.267,4.267-4.267    h8.533c2.355,0,4.267,1.911,4.267,4.267V285.863z M213.334,285.863c0,2.355-1.911,4.267-4.267,4.267h-8.533    c-2.355,0-4.267-1.911-4.267-4.267v-8.533c0-2.355,1.911-4.267,4.267-4.267h8.533c2.355,0,4.267,1.911,4.267,4.267V285.863z     M247.467,285.863c0,2.355-1.911,4.267-4.267,4.267h-8.533c-2.355,0-4.267-1.911-4.267-4.267v-8.533    c0-2.355,1.911-4.267,4.267-4.267h8.533c2.355,0,4.267,1.911,4.267,4.267V285.863z M281.6,285.863    c0,2.355-1.911,4.267-4.267,4.267H268.8c-2.355,0-4.267-1.911-4.267-4.267v-8.533c0-2.355,1.911-4.267,4.267-4.267h8.533    c2.355,0,4.267,1.911,4.267,4.267V285.863z M315.734,285.863c0,2.355-1.911,4.267-4.267,4.267h-8.533    c-2.355,0-4.267-1.911-4.267-4.267v-8.533c0-2.355,1.911-4.267,4.267-4.267h8.533c2.355,0,4.267,1.911,4.267,4.267V285.863z     M349.867,285.863c0,2.355-1.911,4.267-4.267,4.267h-8.533c-2.355,0-4.267-1.911-4.267-4.267v-8.533    c0-2.355,1.911-4.267,4.267-4.267h8.533c2.355,0,4.267,1.911,4.267,4.267V285.863z M384,285.863c0,2.355-1.911,4.267-4.267,4.267    H371.2c-2.355,0-4.267-1.911-4.267-4.267v-8.533c0-2.355,1.911-4.267,4.267-4.267h8.533c2.355,0,4.267,1.911,4.267,4.267V285.863z     M418.134,285.863c0,2.355-1.911,4.267-4.267,4.267h-8.533c-2.355,0-4.267-1.911-4.267-4.267v-8.533    c0-2.355,1.911-4.267,4.267-4.267h8.533c2.355,0,4.267,1.911,4.267,4.267V285.863z M452.267,285.863    c0,2.355-1.911,4.267-4.267,4.267h-8.533c-2.355,0-4.267-1.911-4.267-4.267v-8.533c0-2.355,1.911-4.267,4.267-4.267H448    c2.355,0,4.267,1.911,4.267,4.267V285.863z"
   id="path1" />
	</g>
</g>
<g
   id="g4">
	<g
   id="g3">
		<path
   d="M439.45,190.451l-5.589-14.353c-1.271-3.277-4.429-5.436-7.945-5.436h-33.382v-21.333c0-2.355-1.911-4.267-4.267-4.267    h-8.533c-2.355,0-4.267,1.911-4.267,4.267v21.333H332.8v-21.333c0-2.355-1.911-4.267-4.267-4.267H320    c-2.355,0-4.267,1.911-4.267,4.267v21.333h-42.667v-21.333c0-2.355-1.911-4.267-4.267-4.267h-8.533    c-2.355,0-4.267,1.911-4.267,4.267v21.333h-35.396c-3.516,0-6.673,2.159-7.953,5.436l-5.589,14.345    c-1.084,2.799,0.981,5.82,3.977,5.82h224.435C438.477,196.263,440.542,193.242,439.45,190.451z"
   id="path2" />
	</g>
</g>
<g
   id="g6">
	<g
   id="g5">
		<path
   d="m 475.836,233.237 -5.052,-14.234 c -1.203,-3.405 -4.429,-5.675 -8.038,-5.675 l -389.193648,0 c -3.61,0 -6.835,2.27 -8.038,5.675 l -5.052,14.225 c -0.99,2.782 1.067,5.7 4.011,5.7 l 407.343648,0 c 2.944,0.001 5.009,-2.917 4.019,-5.691 z"
   id="path4"
   sodipodi:nodetypes="ccssccscc" />
	</g>
</g><g
   inkscape:groupmode="layer"
   id="layer1"
   inkscape:label="gun"><path
     id="path6"
     style="opacity:1;fill:#000000;fill-opacity:1;stroke:#000000;stroke-width:0.0243196;stroke-linecap:square;stroke-linejoin:bevel;stroke-dasharray:none;stroke-opacity:1;paint-order:fill markers stroke"
     d="M 70.841393 62.540273 L 60.747801 68.125186 L 95.872252 165.49241 C 87.230166 174.172 80.709688 185.09031 77.281292 197.50816 L 180.68093 197.50816 C 188.57832 198.96295 192.94324 164.08744 192.94324 164.08744 C 196.9189 153.25144 159.04529 144.28793 147.54269 144.0165 C 140.32418 144.01648 133.30096 145.07794 126.64427 147.0702 L 126.64302 147.0702 L 70.841393 62.540273 z M 219.84406 222.11028 L 219.84406 226.14897 C 220.01569 224.80674 220.14991 223.45999 220.24656 222.11028 L 219.84406 222.11028 z M 95.604756 268.04581 C 104.6341 277.21612 115.83926 283.74635 128.0205 287.13301 L 128.0205 295.89788 C 128.0205 296.15373 128.22714 296.36037 128.48299 296.36037 L 186.58208 296.36037 C 186.83794 296.36037 187.04333 296.15373 187.04333 295.89788 L 187.04333 278.1644 C 191.514 275.28185 195.68991 271.89698 199.48188 268.04581 L 95.604756 268.04581 z " /></g>
</svg>
