<?xml version="1.0" encoding="UTF-8" standalone="no"?>
<svg
   width="128"
   height="128"
   version="1.1"
   id="svg31"
   sodipodi:docname="eCchPJVN.svg"
   inkscape:version="1.4.3 (0d15f75042, 2025-12-25)"
   xmlns:inkscape="http://www.inkscape.org/namespaces/inkscape"
   xmlns:sodipodi="http://sodipodi.sourceforge.net/DTD/sodipodi-0.dtd"
   xmlns:xlink="http://www.w3.org/1999/xlink"
   xmlns="http://www.w3.org/2000/svg"
   xmlns:svg="http://www.w3.org/2000/svg">
  <defs
     id="defs31" />
  <sodipodi:namedview
     id="namedview31"
     pagecolor="#ffffff"
     bordercolor="#000000"
     borderopacity="0.25"
     inkscape:showpageshadow="2"
     inkscape:pageopacity="0.0"
     inkscape:pagecheckerboard="0"
     inkscape:deskcolor="#d1d1d1"
     inkscape:zoom="4.6569611"
     inkscape:cx="5.58304"
     inkscape:cy="90.939133"
     inkscape:window-width="1920"
     inkscape:window-height="1052"
     inkscape:window-x="0"
     inkscape:window-y="0"
     inkscape:window-maximized="1"
     inkscape:current-layer="svg31" />
  <g
     fill="#fbc11b"
     id="g3">
    <path
       d="M31.04 53.4l-5.32 8.71 23.49 16.34 7.24-14.06z"
       id="path1" />
    <ellipse
       cx="28.4"
       cy="57.72"
       transform="rotate(-16.403 28.407 57.722)"
       id="ellipse1"
       ry="5.17"
       rx="5.17" />
    <path
       d="M28.71 35.51l-10 2.04 4.72 21.52 9.99-2.05z"
       id="path2" />
    <path
       d="M14.35 30.2l-.2.25c-2.23 2.79-1.78 6.87 1.01 9.1l2.86 2.28c2.79 2.23 6.87 1.78 9.1-1.01l.2-.25c2.23-2.79 1.78-6.87-1.01-9.1l-2.86-2.28c-2.79-2.24-6.87-1.78-9.1 1.01z"
       id="path3" />
    <ellipse
       cx="52.83"
       cy="71.42"
       transform="rotate(-62.774 52.83 71.421)"
       id="ellipse3"
       ry="7.91"
       rx="7.91" />
  </g>
  <g
     fill="#fbc11b"
     id="g6">
    <path
       d="M97.89 96.21l5.58-8.55-22.99-17.05-7.66 13.84z"
       id="path4" />
    <ellipse
       cx="100.65"
       cy="91.97"
       rx="5.17"
       ry="5.17"
       transform="rotate(-14.67 100.66 91.982)"
       id="ellipse4" />
    <path
       d="M102.46 114.25l9.76-2.96-6.67-20.98-9.77 2.95z"
       id="path5" />
    <path
       d="M117.25 118.21l.18-.27c1.97-2.99 1.14-7-1.85-8.97l-3.05-2.01c-2.99-1.97-7-1.14-8.97 1.85l-.18.27c-1.97 2.99-1.14 7 1.85 8.97l3.05 2.01c2.99 1.97 7 1.14 8.97-1.85z"
       id="path6" />
    <ellipse
       cx="76.65"
       cy="77.53"
       rx="7.91"
       ry="7.91"
       transform="rotate(-61.033 76.656 77.533)"
       id="ellipse6" />
  </g>
  <g
     fill="#fbc11b"
     id="g8">
    <path
       d="M65.08 81.42l17.41 5.49-10.26 32.56-34.73-10.95 10.26-32.56z"
       id="path7" />
    <path
       d="M63.93 63.98c2.19.26 10.17 2.78 12.11 3.82 6.14 3.3 10.01 7.69 8.08 13.83l-6.6 20.93-17.37-5.47-17.37-5.49 6.6-20.93c1.94-6.14 7.63-7.51 14.55-6.69z"
       id="path8" />
  </g>
  <g
     fill="#e7a13d"
     id="g10">
    <path
       d="M69.07 74.87c3.02.23 5.65-2.03 5.88-5.05l.36-4.67-10.93-.83-.36 4.67c-.24 3.01 2.03 5.65 5.05 5.88z"
       id="path9" />
    <path
       d="M64.04 68.53s2.02 1.01 5.4 1.26c3.38.26 5.53-.33 5.53-.33l.41-5.37c.11-1.44-.72-3.07-2.16-3.17l-6.19-.47c-1.44-.11-2.48 1.27-2.59 2.71l-.4 5.37z"
       id="path10" />
  </g>
  <g
     fill="#e49500"
     id="g12"
     transform="matrix(1,0,0,0.85582963,0,8.2547061)">
    <path
       d="m 56.62,48.32 c 0,0 -2.68,0.26 -2.9,3.1 -0.19,2.51 1.66,3.65 3.59,3.8 l 0.52,-6.81 z m 28.85,2.2 c 0,0 2.61,0.66 2.39,3.51 -0.19,2.51 -2.2,3.36 -4.12,3.21 l 0.52,-6.81 z"
       id="path12" />
  </g>
  <path
     d="m 72.46,41.245241 c 11.4,0.626907 13.71,7.155395 12.76,16.097838 -0.98,9.273911 -9.5,11.219486 -15.61,10.880812 -6.02,-0.331469 -14.13,-3.120127 -13.15,-12.45889 0.95,-8.942443 4.61,-15.146669 16,-14.51976 z"
     fill="#fbc11b"
     id="path13"
     style="stroke-width:0.848872" />
  <path
     d="M75.5 53.53c-.1 1.28.68 2.39 1.74 2.47 1.06.08 2-.89 2.1-2.17.1-1.28-.69-2.39-1.75-2.47-1.06-.09-2 .88-2.09 2.17M66.03 52.81c-.1 1.28-1.04 2.25-2.1 2.17-1.06-.08-1.84-1.19-1.75-2.47.1-1.28 1.04-2.26 2.1-2.18 1.07.09 1.85 1.19 1.75 2.48"
     fill="#444"
     id="path14" />
  <path
     d="M68.42 57.31c.69.25 1.42.41 1.99.45s1.31 0 2.03-.15c.31-.06.41.23.28.42-.25.38-1.22 1.11-2.41 1.02-1.19-.09-2.04-.96-2.23-1.37-.09-.2.05-.47.34-.37z"
     fill="#e49500"
     id="path15" />
  <path
     d="m 67.371537,50.037644 c -0.878679,-0.432748 -1.808296,-0.709708 -2.534161,-0.778947 -0.725865,-0.06924 -1.668216,0 -2.585099,0.259649 -0.394768,0.103859 -0.522113,-0.398129 -0.356565,-0.727018 0.318362,-0.657778 1.553606,-1.921404 3.069009,-1.765614 1.515403,0.155789 2.597833,1.661754 2.839788,2.371462 0.114611,0.346199 -0.06367,0.813568 -0.432972,0.640468 z"
     fill="#e49500"
     id="path15-5"
     style="fill:#444444;fill-opacity:1;stroke-width:1.4847" />
  <path
     d="m 80.85374,51.380913 c -0.878679,-0.432748 -1.808296,-0.709708 -2.534161,-0.778947 -0.725865,-0.06924 -1.668216,0 -2.585099,0.259649 -0.394768,0.103859 -0.522113,-0.398129 -0.356565,-0.727018 0.318362,-0.657778 1.553606,-1.921404 3.069009,-1.765614 1.515403,0.155789 2.597833,1.661754 2.839788,2.371462 0.114611,0.346199 -0.06367,0.813568 -0.432972,0.640468 z"
     fill="#e49500"
     id="path15-5-2"
     style="fill:#444444;fill-opacity:1;stroke-width:1.4847" />
  <path
     d="M55.9 48.46c.74-.43 1.25-1.15 1.86-1.75 1.96-1.93 4.84-2.56 7.57-2.92 3.82-.51 7.75-.66 11.48.29 3.73.95 7.27 3.12 9.24 6.43"
     fill="none"
     id="path16" />
  <g
     id="g25"
     transform="translate(-0.98886856,7.3823719)">
    <defs
       id="defs17">
      <circle
         id="a"
         cx="28.559999"
         cy="23.969999"
         r="16" />
    </defs>
    <use
       xlink:href="#a"
       overflow="visible"
       fill="#ff9100"
       id="use17" />
    <clipPath
       id="b">
      <use
         xlink:href="#a"
         overflow="visible"
         id="use18" />
    </clipPath>
    <g
       clip-path="url(#b)"
       fill="none"
       stroke="#5c6bc0"
       stroke-width="0.787"
       id="g24">
      <path
         d="M 28.55,23.98 C 27.55,21.66 27,19.1 27,16.41 c 0,-3.17 0.77,-6.16 2.13,-8.79"
         id="path18" />
      <path
         d="m 27.64,11.45 c 0.32,-0.02 0.65,-0.02 0.98,-0.02 6.49,0 12.22,3.22 15.69,8.15 M 27.08,18.19 c 0.51,-0.04 1.02,-0.06 1.54,-0.06 6.62,0 12.46,3.35 15.9,8.46"
         id="path19" />
      <g
         id="g21">
        <path
           d="m 28.53,23.97 c 2.51,0.3 5.01,1.1 7.33,2.44 2.75,1.58 4.95,3.75 6.55,6.24"
           id="path20" />
        <path
           d="m 39.84,29.45 c -0.15,0.29 -0.3,0.58 -0.47,0.86 -3.24,5.62 -8.9,8.97 -14.9,9.52 m 9.81,-14.24 c -0.22,0.46 -0.46,0.92 -0.72,1.37 -3.31,5.73 -9.13,9.11 -15.28,9.55"
           id="path21" />
      </g>
      <g
         id="g23">
        <path
           d="m 28.55,23.97 a 18.97,18.97 0 0 1 -5.78,5.13 19.2,19.2 0 0 1 -8.68,2.55"
           id="path22" />
        <path
           d="M 18.15,31.01 C 17.97,30.74 17.8,30.46 17.64,30.17 14.4,24.55 14.32,17.97 16.85,12.5 m 7.42,15.63 c -0.29,-0.42 -0.56,-0.86 -0.82,-1.31 -3.31,-5.73 -3.32,-12.47 -0.63,-18"
           id="path23" />
      </g>
    </g>
  </g>
  <path
     d="M96.01 99.36c-6.06 0-9.43-7.19-16-7.19s-9.93 7.19-16 7.19-9.43-7.19-16-7.19-9.93 7.19-16 7.19-9.43-7.19-16-7.19-9.93 7.19-16 7.19v-7.19H0V128h127.93V99.36c-6.01-.06-9.38-7.18-15.92-7.18-6.57 0-9.94 7.18-16 7.18z"
     fill="#039be5"
     id="path25" />
  <g
     fill="#29b6f6"
     id="g30">
    <path
       d="M127.97 108.7c-6.06 0-9.43 7.19-16 7.19h16v-7.19zM111.97 115.89c-6.57 0-9.93-7.19-16-7.19s-9.43 7.19-16 7.19h32z"
       id="path26" />
    <path
       d="M79.98 115.89c-6.57 0-9.93-7.19-16-7.19s-9.43 7.19-16 7.19h32z"
       id="path27" />
    <path
       d="M47.99 115.89c-6.57 0-9.93-7.19-16-7.19s-9.43 7.19-16 7.19h32z"
       id="path28" />
    <path
       d="M16 115.89c-6.57 0-9.93-7.19-16-7.19v7.19h16z"
       id="path29" />
    <path
       d="M128 127.999H0v-12.11h128z"
       id="path30" />
  </g>
  <path
     d="m 65.952553,63.122551 c 0.579975,0.04036 4.149807,0.312575 4.149807,0.312575 0,0 3.569832,0.272216 4.149807,0.312575 0.479975,0.0403 0.700167,-0.269565 0.430478,-0.769733 -0.389566,-0.700241 -1.928685,-2.121197 -4.368572,-2.302711 -2.439888,-0.181514 -4.170614,0.987413 -4.661005,1.617108 -0.360285,0.459777 -0.18049,0.789889 0.299485,0.830186 z"
     fill="#444444"
     id="path31" />
  <text
     xml:space="preserve"
     style="writing-mode:lr-tb;direction:ltr;white-space:pre;inline-size:57.7395;fill:#bba143;fill-opacity:1"
     x="23.990511"
     y="30.519573"
     id="text31"
     transform="matrix(0.26811325,0,0,0.29253387,14.818206,22.277881)"><tspan
       x="23.990511"
       y="30.519573"
       id="tspan1">jim's </tspan><tspan
       x="23.990511"
       y="45.519573"
       id="tspan2">propriety</tspan></text>
</svg>
