<?xml version="1.0" encoding="UTF-8" standalone="no"?>
<!-- Generator: Adobe Illustrator 24.0.3, SVG Export Plug-In . SVG Version: 6.00 Build 0)  -->

<svg
   version="1.1"
   id="Layer_1"
   x="0px"
   y="0px"
   viewBox="0 0 128 128"
   style="enable-background:new 0 0 128 128;"
   xml:space="preserve"
   sodipodi:docname="water tile.svg"
   inkscape:version="1.4.3 (0d15f75042, 2025-12-25)"
   xmlns:inkscape="http://www.inkscape.org/namespaces/inkscape"
   xmlns:sodipodi="http://sodipodi.sourceforge.net/DTD/sodipodi-0.dtd"
   xmlns="http://www.w3.org/2000/svg"
   xmlns:svg="http://www.w3.org/2000/svg"><defs
   id="defs23" /><sodipodi:namedview
   id="namedview23"
   pagecolor="#ffffff"
   bordercolor="#cccccc"
   borderopacity="1"
   inkscape:showpageshadow="0"
   inkscape:pageopacity="1"
   inkscape:pagecheckerboard="0"
   inkscape:deskcolor="#d1d1d1"
   inkscape:zoom="2.8284271"
   inkscape:cx="51.972348"
   inkscape:cy="72.655222"
   inkscape:window-width="1211"
   inkscape:window-height="1028"
   inkscape:window-x="0"
   inkscape:window-y="0"
   inkscape:window-maximized="1"
   inkscape:current-layer="g23" />
<linearGradient
   id="body_1_"
   gradientUnits="userSpaceOnUse"
   x1="60.4521"
   y1="44.724"
   x2="71.3358"
   y2="73.4681"
   gradientTransform="matrix(1 0 0 -1 0 128)">
	<stop
   offset="0"
   style="stop-color:#FFB300"
   id="stop1" />
	<stop
   offset="0.5"
   style="stop-color:#FFCA28"
   id="stop2" />
</linearGradient>






<g
   id="g23"
   style="display:inline"><path
     id="water_x5F_top_1_"
     style="enable-background:new 0 0 128 128;fill:#039be5"
     d="M -0.051,128 H 128.01 l -2.3e-4,-28.630859 c -2.26498,0 -4.15281,-1.000759 -5.97071,-2.25586 -0.0341,-0.02358 -0.0675,-0.04851 -0.10156,-0.07227 -1.34308,-0.935413 -2.66297,-1.977454 -4.06055,-2.873047 -0.36871,-0.236383 -0.7415,-0.464733 -1.125,-0.671875 -0.5606,-0.302475 -1.13607,-0.572762 -1.74023,-0.783203 -0.16231,-0.05676 -0.32416,-0.113557 -0.49024,-0.16211 -0.15078,-0.04386 -0.30485,-0.08064 -0.45898,-0.117187 -0.19606,-0.04681 -0.39584,-0.08506 -0.59766,-0.119141 -0.13287,-0.02219 -0.26485,-0.04621 -0.40039,-0.0625 -0.33193,-0.04056 -0.67049,-0.06815 -1.01953,-0.07031 -0.0153,-9.5e-5 -0.0296,-0.0019 -0.0449,-0.002 -0.003,3e-6 -0.006,-8e-6 -0.01,0 -6.56278,0 -9.92306,7.173704 -15.980464,7.189453 -0.0033,8e-6 -0.0064,-5e-6 -0.0098,0 -0.0033,-5e-6 -0.0064,8e-6 -0.0098,0 -6.047446,-0.01576 -9.417686,-7.189453 -15.980468,-7.189453 -0.0033,0 -0.0064,-4e-6 -0.0098,0 -0.0033,-4e-6 -0.0064,0 -0.0098,0 -0.386502,0 -0.761463,0.02738 -1.126953,0.07422 -2.583657,0.331102 -4.673757,1.756863 -6.693359,3.248047 -1.37489,1.011679 -2.717255,2.053143 -4.160156,2.798828 v 0.0078 c -1.237008,0.639915 -2.54845,1.060547 -4.019532,1.060547 -4.165158,0 -7.069855,-3.353732 -10.595703,-5.478516 -0.192826,-0.116553 -0.383138,-0.237377 -0.580078,-0.345703 -0.688154,-0.377019 -1.398659,-0.707429 -2.154297,-0.941406 -0.03014,-0.0094 -0.05957,-0.02014 -0.08984,-0.0293 -0.205915,-0.06158 -0.416694,-0.112338 -0.628906,-0.160157 -0.139037,-0.03188 -0.279967,-0.0604 -0.421875,-0.08594 -0.165408,-0.02907 -0.330442,-0.05823 -0.5,-0.07813 -0.312691,-0.03804 -0.631157,-0.06233 -0.958984,-0.06641 -0.02405,-1.94e-4 -0.04618,-0.0039 -0.07031,-0.0039 -0.0067,0 -0.01287,-1.5e-5 -0.01953,0 -0.0067,-1.5e-5 -0.01481,0 -0.02148,0 -6.562775,0 -9.921138,7.173673 -15.978516,7.189453 -6.047433,-0.01578 -9.417694,-7.189453 -15.980469,-7.189453 -0.0067,0 -0.01286,-1.5e-5 -0.01953,0 -0.0067,-1.5e-5 -0.01482,0 -0.02148,0 -0.02618,0 -0.05009,0.0056 -0.07617,0.0059 -0.326461,0.0043 -0.645576,0.02651 -0.957031,0.06445 -0.157488,0.01855 -0.310943,0.04578 -0.464844,0.07227 -0.161249,0.02837 -0.320956,0.05918 -0.478516,0.0957 -0.205027,0.0468 -0.408274,0.0966 -0.607422,0.15625 -0.02428,0.0073 -0.04806,0.01591 -0.07226,0.02344 -0.74757,0.230286 -1.451513,0.554933 -2.132813,0.925782 -0.274906,0.149856 -0.541431,0.317023 -0.808594,0.482421 -1.470105,0.910389 -2.8504559,1.995485 -4.2499995,2.976563 -0.072429,0.05055 -0.1441621,0.102573 -0.2167969,0.152344 -0.5701944,0.392463 -1.1484229,0.757582 -1.7421875,1.076172 -0.02453,0.01309 -0.047679,0.03004 -0.072266,0.04297 -1.2667006,0.669494 -2.6097701,1.115235 -4.12109375,1.115235 z"
     sodipodi:nodetypes="cccsccccccccsscsscsssscccsccccccccscscscscccccccccccccc" /><path
     id="water_x5F_bottom_1_"
     style="enable-background:new 0 0 128 128;display:inline;fill:#29b6f6"
     d="M -0.061,128 H 144 l -0.0293,-16.09961 c -6.57,0 -10.15808,-6.9455 -16,-7.18945 -1.90216,-0.0794 -3.74242,0.82901 -5.38672,1.89844 -0.006,0.004 -0.0131,0.008 -0.0195,0.0117 -1.98337,1.29294 -3.86442,2.93365 -6.00195,4.05274 -0.28813,0.14974 -0.58026,0.29264 -0.87891,0.41992 -0.42182,0.18098 -0.85297,0.34389 -1.30078,0.46875 -0.0696,0.0193 -0.14062,0.035 -0.21093,0.0527 -0.27407,0.0697 -0.55438,0.12543 -0.83985,0.16993 -0.0844,0.013 -0.16844,0.0284 -0.25391,0.0391 -0.35685,0.045 -0.72085,0.0757 -1.09765,0.0762 h -0.006 -0.004 c -0.40917,0 -0.80563,-0.0297 -1.1914,-0.082 -0.001,-1.8e-4 -0.003,1.8e-4 -0.004,0 -5.02858,-0.68898 -8.1907,-5.52344 -12.642578,-6.79883 -0.343035,-0.0983 -0.692933,-0.17605 -1.052734,-0.22851 -0.360578,-0.0531 -0.729064,-0.0801 -1.109375,-0.0801 -0.376661,0 -0.744272,0.028 -1.101562,0.0801 -5.030431,0.73354 -8.280851,6.28738 -13.699219,7.02734 -0.386881,0.0528 -0.784893,0.0818 -1.195313,0.082 h -0.0039 c -0.409177,0 -0.80563,-0.0297 -1.191406,-0.082 -0.0013,-1.8e-4 -0.0026,1.8e-4 -0.0039,0 -5.028583,-0.68898 -8.190706,-5.52344 -12.642579,-6.79883 -0.343035,-0.0983 -0.692933,-0.17605 -1.052734,-0.22851 -0.36058,-0.0531 -0.729062,-0.0801 -1.109375,-0.0801 -0.376661,0 -0.744272,0.028 -1.101562,0.0801 -5.030429,0.73354 -8.280854,6.28738 -13.699219,7.02734 -0.386881,0.0528 -0.784893,0.0818 -1.195313,0.082 h -0.0039 c -0.376833,-3.8e-4 -0.740765,-0.0312 -1.097656,-0.0762 -0.08832,-0.011 -0.174536,-0.0255 -0.261719,-0.0391 -0.283479,-0.0444 -0.561761,-0.10072 -0.833984,-0.16993 -0.06819,-0.0172 -0.137546,-0.0321 -0.205078,-0.0508 -0.444033,-0.1235 -0.870613,-0.28413 -1.289063,-0.46289 -0.311108,-0.13242 -0.614592,-0.28063 -0.914062,-0.4375 -1.259621,-0.66175 -2.430398,-1.50636 -3.582032,-2.36133 -0.725162,-0.53835 -1.450054,-1.05689 -2.183593,-1.54687 -0.224742,-0.14994 -0.455649,-0.28235 -0.683594,-0.42188 -1.511693,-0.9262 -3.095603,-1.62304 -4.939453,-1.62304 -1.476385,0 -2.789021,0.4384 -4.03125,1.08398 v -0.0156 c -0.130227,0.0675 -0.25808,0.13887 -0.386853,0.21093 -3.683036,2.06102 -6.810532,5.89951 -11.601562,5.91016 -4.958423,-0.011 -8.0963558,-4.11401 -11.9511724,-6.11133 v 0.0117 c -1.2523985,-0.65568 -2.5801871,-1.08984 -4.07031247,-1.08984 z"
     inkscape:label="water_x5F_bottom_1_"
     sodipodi:nodetypes="cccsscccccccscsscscscsssscscscsssccccccsccscccccccc" /></g>






<linearGradient
   id="hand_2_"
   gradientUnits="userSpaceOnUse"
   x1="222.7233"
   y1="-1979.9728"
   x2="222.4084"
   y2="-1991.0787"
   gradientTransform="matrix(0.7216 0.5127 0.5792 -0.8152 1083.5981 -1632.4772)">
	<stop
   offset="0.5"
   style="stop-color:#FFCA28"
   id="stop22" />
	<stop
   offset="1"
   style="stop-color:#FFB300"
   id="stop23" />
</linearGradient>

</svg>
